<?xml version="1.0" encoding="UTF-8"?>
<svg id="Layer_1" data-name="Layer 1" xmlns="http://www.w3.org/2000/svg" viewBox="0 0 250.69 250.69">
  <defs>
    <style>
      .cls-1 {
        fill: #fff;
      }
    </style>
  </defs>
  <path class="cls-1" d="M164.26,93.1c10.26-10.72,24.02-11.11,36.81-1.04,2.27,1.79,4.85,4.41,7.58,7.19,7.44,7.58,15.85,16.16,25.05,15.28,4.85-.47,9.22-3.58,12.97-9.26,4.34-6.57,5.19-14.1,2.47-21.79-4.67-13.18-18.45-23.65-29.64-27.18-8.01-2.53-16.45-2.63-24.73-.36,2.27-8.28,2.17-16.73-.36-24.73-3.53-11.19-14-24.97-27.18-29.64-7.69-2.72-15.22-1.87-21.79,2.47-5.68,3.75-8.79,8.12-9.26,12.97-.88,9.17,7.71,17.61,15.28,25.05,2.78,2.73,5.4,5.31,7.19,7.58,10.06,12.78,9.67,26.54-1.04,36.81-.42.4-29.3,29.31-32.25,32.27-16.6-16.59-32.88-32.87-33.68-33.72-9.27-10.05-9.12-23.27.39-35.35,1.79-2.27,4.41-4.85,7.19-7.58,7.58-7.44,16.17-15.88,15.28-25.05-.47-4.85-3.58-9.22-9.26-12.97-6.57-4.34-14.1-5.19-21.79-2.47-13.18,4.67-23.65,18.45-27.18,29.64-2.53,8.01-2.63,16.45-.36,24.73-8.28-2.28-16.73-2.17-24.73.36-11.19,3.53-24.97,14-29.64,27.18-2.72,7.69-1.87,15.22,2.47,21.79,3.75,5.68,8.12,8.79,12.97,9.26,9.15.88,17.61-7.71,25.05-15.28,2.73-2.78,5.31-5.4,7.58-7.19,12.1-9.53,25.34-9.66,35.4-.34.85.79,17.12,17.07,33.67,33.64-16.62,16.63-32.87,32.88-33.73,33.68-10.05,9.27-23.27,9.13-35.35-.39-2.27-1.79-4.85-4.41-7.58-7.19-7.44-7.58-15.86-16.17-25.05-15.28-4.85.47-9.21,3.58-12.97,9.26-4.34,6.57-5.19,14.1-2.47,21.79,4.67,13.18,18.45,23.65,29.64,27.18,8.01,2.53,16.45,2.63,24.73.36-2.27,8.28-2.17,16.73.36,24.73,3.53,11.19,14,24.97,27.18,29.64,2.94,1.04,5.86,1.56,8.71,1.56,4.6,0,9.02-1.35,13.08-4.03,5.68-3.75,8.79-8.12,9.26-12.97.89-9.17-7.71-17.61-15.28-25.05-2.78-2.73-5.4-5.31-7.19-7.58-9.53-12.11-9.66-25.34-.34-35.4.79-.84,17.06-17.11,33.63-33.67,2.78,2.78,31.83,31.86,32.25,32.27,10.72,10.26,11.11,24.02,1.04,36.81-1.79,2.27-4.41,4.85-7.19,7.58-7.58,7.44-16.17,15.88-15.28,25.05.47,4.85,3.59,9.22,9.26,12.97,4.05,2.68,8.48,4.03,13.08,4.03,2.85,0,5.77-.52,8.71-1.56,13.18-4.67,23.65-18.45,27.18-29.64,2.53-8.01,2.63-16.45.36-24.73,8.28,2.27,16.73,2.17,24.73-.36,11.19-3.53,24.97-14,29.64-27.18,2.72-7.69,1.87-15.22-2.47-21.79-3.75-5.68-8.12-8.79-12.97-9.26-9.19-.89-17.61,7.71-25.05,15.28-2.73,2.78-5.31,5.4-7.58,7.19-12.78,10.06-26.54,9.67-36.81-1.04-.41-.43-29.42-29.41-32.26-32.25,2.83-2.82,31.86-31.83,32.26-32.25Z"/>
</svg>