<?xml version="1.0" encoding="UTF-8"?><svg id="Layer_1" xmlns="http://www.w3.org/2000/svg" viewBox="0 0 48 47.99"><circle cx="24" cy="24" r="24" fill="#ddf456"/><path d="M34.3,33.97c1.23.34,2.48.32,3.67-.05,1.66-.52,3.7-2.08,4.4-4.03.4-1.14.28-2.26-.37-3.23-.56-.84-1.2-1.3-1.92-1.37-1.36-.13-2.61,1.14-3.72,2.27-.4.41-.79.8-1.12,1.07-1.86,1.47-3.3.87-4.81-.65l-4.29-4.29,4.21-4.21c1.52-1.59,2.99-2.22,4.89-.73.34.27.72.65,1.12,1.07,1.1,1.12,2.35,2.4,3.72,2.27.72-.07,1.37-.53,1.92-1.37.64-.97.77-2.09.37-3.23-.69-1.96-2.74-3.51-4.4-4.03-1.19-.37-2.44-.39-3.67-.05.34-1.23.32-2.48-.05-3.67-.52-1.66-2.08-3.7-4.03-4.4-1.14-.4-2.26-.28-3.23.37-.84.56-1.3,1.2-1.37,1.92-.13,1.36,1.14,2.61,2.27,3.72.41.4.8.79,1.07,1.12,1.49,1.9.86,3.37-.73,4.89l-4.21,4.21-4.42-4.43c-1.37-1.49-1.92-2.88-.51-4.67.27-.34.65-.72,1.07-1.12,1.12-1.1,2.4-2.35,2.27-3.72-.07-.72-.53-1.37-1.37-1.92-.97-.64-2.09-.77-3.23-.37-1.96.69-3.51,2.74-4.03,4.4-.37,1.19-.39,2.44-.05,3.67-1.23-.34-2.48-.32-3.67.05-1.66.52-3.7,2.08-4.4,4.03-.4,1.14-.28,2.26.37,3.23.56.84,1.2,1.3,1.92,1.37,1.36.13,2.61-1.14,3.72-2.27.4-.41.79-.8,1.12-1.07,1.8-1.41,3.47-1.15,4.96.23l4.42,4.42c-2.47,2.47-4.72,4.71-4.72,4.71-1.49,1.37-2.88,1.92-4.67.51-.34-.27-.72-.65-1.12-1.07-1.1-1.12-2.35-2.4-3.72-2.27-.72.07-1.37.53-1.92,1.37-.64.97-.77,2.09-.37,3.23.69,1.96,2.74,3.51,4.4,4.03,1.19.37,2.44.39,3.67.05-.34,1.23-.32,2.48.05,3.67.31.97.97,2.08,1.85,2.96.63.63,1.37,1.15,2.18,1.43,1.14.4,2.26.28,3.23-.37.84-.56,1.3-1.2,1.37-1.92.13-1.36-1.14-2.61-2.27-3.72-.41-.4-.8-.79-1.07-1.12-1.41-1.8-.86-3.19.52-4.68,0,0,2.25-2.26,4.7-4.71l4.29,4.29c1.51,1.51,1.83,3.23.36,5.1-.27.34-.65.72-1.07,1.12-1.12,1.1-2.4,2.35-2.27,3.72.05.5.29.97.71,1.39.19.19.41.36.66.53.97.64,2.09.77,3.23.37,1.96-.69,3.51-2.74,4.03-4.4.37-1.19.39-2.44.05-3.67Z"/></svg>