<?xml version="1.0" encoding="UTF-8"?>
<svg id="Layer_1" xmlns="http://www.w3.org/2000/svg" viewBox="0 0 64 63.99">
  <defs>
    <style>
      .cls-1 {
        fill: #ddf456;
      }
    </style>
  </defs>
  <ellipse class="cls-1" cx="32" cy="32" rx="32" ry="32"/>
  <path d="M45.74,45.73c1.64.45,3.31.43,4.89-.07,2.21-.7,4.94-2.77,5.86-5.38.54-1.52.37-3.01-.49-4.31-.74-1.12-1.6-1.74-2.56-1.83-1.81-.17-3.48,1.52-4.95,3.02-.54.55-1.05,1.07-1.5,1.42-2.49,1.96-4.4,1.15-6.42-.86l-5.72-5.72,5.62-5.62c2.03-2.12,3.99-2.96,6.52-.97.45.35.96.87,1.5,1.42,1.47,1.5,3.14,3.2,4.95,3.02.96-.09,1.82-.71,2.56-1.83.86-1.3,1.03-2.79.49-4.31-.92-2.61-3.65-4.68-5.86-5.38-1.58-.5-3.25-.52-4.89-.07.45-1.64.43-3.31-.07-4.89-.7-2.21-2.77-4.94-5.38-5.86-1.52-.54-3.01-.37-4.31.49-1.12.74-1.74,1.6-1.83,2.56-.17,1.81,1.52,3.48,3.02,4.95.55.54,1.07,1.05,1.42,1.5,1.99,2.53,1.15,4.49-.97,6.52l-5.62,5.62-5.9-5.91c-1.83-1.99-2.56-3.84-.68-6.23.35-.45.87-.96,1.42-1.5,1.5-1.47,3.2-3.14,3.02-4.95-.09-.96-.71-1.82-1.83-2.56-1.3-.86-2.79-1.03-4.31-.49-2.61.92-4.68,3.65-5.38,5.86-.5,1.58-.52,3.25-.07,4.89-1.64-.45-3.31-.43-4.89.07-2.21.7-4.94,2.77-5.86,5.38-.54,1.52-.37,3.01.49,4.31.74,1.12,1.61,1.74,2.56,1.83,1.81.17,3.48-1.52,4.95-3.02.54-.55,1.05-1.07,1.5-1.42,2.39-1.88,4.63-1.53,6.62.31l5.9,5.89c-3.29,3.29-6.29,6.28-6.29,6.28-1.99,1.83-3.84,2.56-6.23.68-.45-.35-.96-.87-1.5-1.42-1.47-1.5-3.14-3.2-4.95-3.02-.96.09-1.82.71-2.56,1.83-.86,1.3-1.03,2.79-.49,4.31.92,2.61,3.65,4.68,5.86,5.38,1.58.5,3.25.52,4.89.07-.45,1.64-.43,3.31.07,4.89.41,1.3,1.29,2.77,2.47,3.95.84.84,1.82,1.53,2.9,1.91,1.52.54,3.01.37,4.31-.49,1.12-.74,1.74-1.6,1.83-2.56.17-1.81-1.52-3.48-3.02-4.95-.55-.54-1.07-1.05-1.42-1.5-1.88-2.39-1.15-4.25.69-6.24,0,0,3-3.01,6.27-6.28l5.72,5.72c2.02,2.02,2.44,4.31.48,6.8-.35.45-.87.96-1.42,1.5-1.5,1.47-3.2,3.14-3.02,4.95.06.67.38,1.29.95,1.85.25.25.54.48.88.71,1.3.86,2.79,1.03,4.31.49,2.61-.92,4.68-3.65,5.38-5.86.5-1.58.52-3.25.07-4.89Z"/>
</svg>