<?xml version="1.0" encoding="UTF-8"?>
<svg id="Layer_1" data-name="Layer 1" xmlns="http://www.w3.org/2000/svg" viewBox="0 0 15.06 15.06">
  <defs>
    <style>
      .cls-1 {
        fill: #171719;
      }
    </style>
  </defs>
  <path class="cls-1" d="M11.7,11.7c.5.14,1,.13,1.49-.02.67-.21,1.5-.84,1.78-1.63.16-.46.11-.91-.15-1.31-.23-.34-.49-.53-.78-.56-.55-.05-1.06.46-1.5.92-.16.17-.32.32-.46.43-.76.59-1.34.35-1.95-.26l-1.74-1.74,1.71-1.71c.62-.64,1.21-.9,1.98-.29.14.11.29.27.46.43.45.46.95.97,1.5.92.29-.03.55-.22.78-.56.26-.39.31-.85.15-1.31-.28-.79-1.11-1.42-1.78-1.63-.48-.15-.99-.16-1.49-.02.14-.5.13-1-.02-1.49-.21-.67-.84-1.5-1.63-1.78-.46-.16-.91-.11-1.31.15-.34.23-.53.49-.56.78-.05.55.46,1.06.92,1.5.17.16.32.32.43.46.6.77.35,1.36-.29,1.98l-1.71,1.71-1.79-1.79c-.56-.6-.78-1.17-.21-1.89.11-.14.27-.29.43-.46.46-.45.97-.95.92-1.5-.03-.29-.22-.55-.56-.78-.39-.26-.85-.31-1.31-.15-.79.28-1.42,1.11-1.63,1.78-.15.48-.16.99-.02,1.49-.5-.14-1-.13-1.49.02-.67.21-1.5.84-1.78,1.63-.16.46-.11.91.15,1.31.23.34.49.53.78.56.55.05,1.06-.46,1.5-.92.16-.17.32-.32.46-.43.73-.57,1.41-.46,2.01.1l1.79,1.79c-1,1-1.91,1.91-1.91,1.91-.6.56-1.17.78-1.89.21-.14-.11-.29-.27-.46-.43-.45-.46-.95-.97-1.5-.92-.29.03-.55.22-.78.56-.26.39-.31.85-.15,1.31.28.79,1.11,1.42,1.78,1.63.48.15.99.16,1.49.02-.14.5-.13,1,.02,1.49.12.39.39.84.75,1.2.25.25.55.46.88.58.46.16.91.11,1.31-.15.34-.23.53-.49.56-.78.05-.55-.46-1.06-.92-1.5-.17-.16-.32-.32-.43-.46-.57-.73-.35-1.29.21-1.9,0,0,.91-.91,1.9-1.91l1.74,1.74c.61.61.74,1.31.15,2.06-.11.14-.27.29-.43.46-.46.45-.97.95-.92,1.5.02.2.12.39.29.56.08.08.16.15.27.22.39.26.85.31,1.31.15.79-.28,1.42-1.11,1.63-1.78.15-.48.16-.99.02-1.49Z"/>
</svg>
