<?xml version="1.0" encoding="UTF-8"?>
<svg id="Layer_1" data-name="Layer 1" xmlns="http://www.w3.org/2000/svg" viewBox="0 0 334.77 334.77">
  <defs>
    <style>
      .cls-1 {
        fill: #010101;
      }
    </style>
  </defs>
  <path class="cls-1" d="M260.08,260.08c11.06,3.04,22.34,2.89,33.03-.48,14.95-4.71,33.34-18.7,39.58-36.3,3.64-10.26,2.5-20.32-3.3-29.09-5.01-7.58-10.84-11.74-17.32-12.37-12.25-1.18-23.52,10.29-33.45,20.41-3.64,3.71-7.08,7.21-10.12,9.6-16.79,13.22-29.71,7.8-43.34-5.84l-38.63-38.63,37.95-37.93c13.71-14.31,26.94-19.97,44.02-6.53,3.03,2.39,6.48,5.89,10.12,9.6,9.93,10.12,21.2,21.59,33.45,20.41,6.48-.62,12.31-4.79,17.32-12.37,5.8-8.77,6.93-18.83,3.3-29.09-6.24-17.6-24.64-31.59-39.58-36.3-10.69-3.37-21.97-3.52-33.03-.48,3.04-11.06,2.89-22.34-.48-33.03-4.72-14.95-18.7-33.34-36.3-39.58-10.26-3.64-20.32-2.5-29.09,3.3-7.58,5.01-11.74,10.84-12.37,17.32-1.18,12.25,10.29,23.52,20.41,33.45,3.71,3.65,7.22,7.09,9.6,10.12,13.44,17.07,7.78,30.31-6.53,44.02l-37.94,37.95-39.84-39.9c-12.38-13.43-17.32-25.94-4.62-42.07,2.39-3.03,5.89-6.48,9.6-10.12,10.12-9.94,21.59-21.2,20.41-33.45-.63-6.48-4.78-12.3-12.37-17.32-8.77-5.79-18.83-6.93-29.09-3.3-17.6,6.24-31.59,24.64-36.3,39.58-3.37,10.69-3.52,21.97-.48,33.03-11.06-3.04-22.34-2.89-33.03.48-14.95,4.71-33.34,18.7-39.58,36.3-3.64,10.26-2.5,20.32,3.3,29.09,5.01,7.58,10.84,11.74,17.32,12.37,12.25,1.18,23.52-10.29,33.45-20.41,3.64-3.71,7.08-7.22,10.12-9.6,16.17-12.72,31.27-10.33,44.7,2.11l39.83,39.78c-22.2,22.21-42.47,42.41-42.47,42.41-13.43,12.38-25.94,17.32-42.07,4.62-3.03-2.39-6.47-5.9-10.12-9.6-9.94-10.12-21.2-21.59-33.45-20.41-6.48.63-12.31,4.79-17.32,12.37-5.79,8.77-6.93,18.83-3.3,29.09,6.24,17.61,24.64,31.59,39.58,36.3,10.69,3.37,21.97,3.52,33.03.48-3.04,11.06-2.89,22.34.48,33.03,2.76,8.75,8.7,18.69,16.69,26.68,5.65,5.65,12.32,10.32,19.61,12.91,10.26,3.64,20.32,2.5,29.09-3.3,7.58-5.01,11.75-10.84,12.37-17.32,1.18-12.25-10.29-23.52-20.41-33.45-3.71-3.64-7.22-7.08-9.6-10.12-12.73-16.17-7.76-28.7,4.68-42.14,0,0,20.24-20.31,42.35-42.4l38.63,38.63c13.63,13.63,16.48,29.11,3.27,45.9-2.39,3.03-5.89,6.48-9.6,10.12-10.12,9.94-21.59,21.2-20.41,33.45.44,4.51,2.58,8.7,6.41,12.53,1.67,1.67,3.66,3.27,5.96,4.79,8.77,5.79,18.83,6.93,29.09,3.3,17.6-6.24,31.59-24.64,36.3-39.58,3.37-10.69,3.52-21.97.48-33.03Z"/>
</svg>