<?xml version="1.0" encoding="UTF-8"?>
<svg id="Layer_1" data-name="Layer 1" xmlns="http://www.w3.org/2000/svg" viewBox="0 0 702.23 176.3">
  <defs>
    <style>
      .cls-1 {
        fill: #010101;
      }
    </style>
  </defs>
  <path class="cls-1" d="M700.55,156.05c-5.42,4.33-11.26,8.12-17.54,11.06-4.46,2.09-9.08,3.8-13.85,5.06-14.08,3.73-28.94,3.96-43.25-.35-67.78-20.38-55.2-128.74,23.3-125.17,28.16,1.28,55.71,21.71,49.26,52.64-6.2,29.74-39.71,20.98-61.41,22.6-18.86,1.41-20.02,17.81-3.64,24.2,17.82,6.96,43.69,1.54,56.11-13.41l12.7,22.02-1.68,1.34ZM616.98,129.99c-2.43-15.35,6.39-25.82,21.48-27.61,11.22-1.34,34.71,4.16,30.73-15.3-3.42-16.74-26.75-16.97-39.05-10.56-18.99,9.89-22.41,35.72-13.16,53.47Z"/>
  <path class="cls-1" d="M187.28,46.78c45.62-2.87,73.76,32.53,67.12,76.54-5.32,35.21-34.99,55.4-69.87,51.83-74.64-7.64-73.47-123.58,2.75-128.37ZM170.6,140.67c8.38,8.24,21.55,10.22,32.54,6.63,35.17-11.51,26.57-85.4-19.91-72.86-26.54,7.16-30.15,49.01-12.63,66.24Z"/>
  <path class="cls-1" d="M577.2,156.05c-5.42,4.33-11.26,8.12-17.54,11.06-4.46,2.09-9.08,3.8-13.85,5.06-14.08,3.73-28.94,3.96-43.25-.35-67.78-20.38-55.2-128.74,23.3-125.17,28.16,1.28,55.71,21.71,49.26,52.64-6.2,29.74-39.71,20.98-61.41,22.6-18.86,1.41-20.02,17.81-3.64,24.2,17.82,6.96,43.69,1.54,56.11-13.41l12.7,22.02-1.68,1.34ZM493.63,129.99c-2.43-15.35,6.39-25.82,21.48-27.61,11.22-1.34,34.71,4.16,30.73-15.3-3.42-16.74-26.75-16.97-39.05-10.56-18.99,9.89-22.41,35.72-13.16,53.47Z"/>
  <path class="cls-1" d="M291.93,50.39v67.31c-1.22,44.23,51.85,38.96,52.65-1.01V50.39s29.01,0,29.01,0v121.44h-29.02v-30.7l-2.39,6.85c-1.71,4.9-4.24,9.51-7.64,13.43-11.18,12.9-29.5,17.85-46.41,11.35-19.01-7.31-24.8-27.58-25.24-46.29l.02-76.08h29.02Z"/>
  <path class="cls-1" d="M426.17,27.79v6.4c0,8.95,7.25,16.2,16.2,16.2h13.16v25.97h-29.36v51.04c-.01,1.71.05,3.41.27,5.11,2.12,16.33,12.81,20.65,29.09,14.69v25.81c-13.57,4.19-32.72,3.74-44.32-5.29-8.21-6.4-11.71-15.94-13.25-25.86-.58-3.76-.81-7.56-.81-11.36v-54.14h-16.2v-25.97h0c8.95,0,16.2-7.25,16.2-16.2v-6.4s29.02,0,29.02,0Z"/>
  <path class="cls-1" d="M29.34,0v102.65l1.93-10.51c.82-4.44,1.96-8.83,3.54-13.06,19.24-51.31,79.71-41.37,87.27,17.65,2.64,20.64-.82,46.46-14.45,62.87-18.51,22.29-50.84,21.87-68.42,1.11-2.99-3.53-5.35-7.55-7.14-11.81l-2.39-5.67-1.03,29.33H0V0h29.34ZM63.73,72.74c-19.95,2.14-29.1,29.84-31.55,46.56-.42,2.87-1.79,13.98-1.79,13.98,0,0,6.31,6.06,7.64,7.24,9.15,8.13,21.96,12.46,33.94,8.33,32.05-11.06,26.91-79.86-8.24-76.1Z"/>
</svg>